<svg xmlns="http://www.w3.org/2000/svg" xmlns:xlink="http://www.w3.org/1999/xlink" width="500" zoomAndPan="magnify" viewBox="0 0 375 374.999991" height="500" preserveAspectRatio="xMidYMid meet" version="1.0"><defs><clipPath id="e23bce52e8"><path d="M 162 91.132812 L 210 91.132812 L 210 191 L 162 191 Z M 162 91.132812 " clip-rule="nonzero"/></clipPath><clipPath id="43d80f73e3"><path d="M 116.71875 196 L 166 196 L 166 230 L 116.71875 230 Z M 116.71875 196 " clip-rule="nonzero"/></clipPath><clipPath id="68401fa790"><path d="M 218 214 L 258.46875 214 L 258.46875 241.132812 L 218 241.132812 Z M 218 214 " clip-rule="nonzero"/></clipPath><clipPath id="e6d00c53d8"><path d="M 79.503906 73.527344 L 295.492188 73.527344 L 295.492188 289.515625 L 79.503906 289.515625 Z M 79.503906 73.527344 " clip-rule="nonzero"/></clipPath><clipPath id="db28928814"><path d="M 187.5 73.527344 C 127.855469 73.527344 79.503906 121.878906 79.503906 181.519531 C 79.503906 241.164062 127.855469 289.515625 187.5 289.515625 C 247.144531 289.515625 295.492188 241.164062 295.492188 181.519531 C 295.492188 121.878906 247.144531 73.527344 187.5 73.527344 Z M 187.5 73.527344 " clip-rule="nonzero"/></clipPath><clipPath id="25f51e715c"><path d="M 84.886719 78.910156 L 290.105469 78.910156 L 290.105469 284.128906 L 84.886719 284.128906 Z M 84.886719 78.910156 " clip-rule="nonzero"/></clipPath><clipPath id="d1a5680e42"><path d="M 187.496094 78.910156 C 130.828125 78.910156 84.886719 124.847656 84.886719 181.519531 C 84.886719 238.1875 130.828125 284.128906 187.496094 284.128906 C 244.167969 284.128906 290.105469 238.1875 290.105469 181.519531 C 290.105469 124.847656 244.167969 78.910156 187.496094 78.910156 Z M 187.496094 78.910156 " clip-rule="nonzero"/></clipPath><clipPath id="dba8dad61c"><path d="M 79.503906 241.132812 L 295.496094 241.132812 L 295.496094 305.351562 L 79.503906 305.351562 Z M 79.503906 241.132812 " clip-rule="nonzero"/></clipPath></defs><path fill="#ceaf83" d="M 232.207031 170.546875 L 211.546875 155.964844 L 211.546875 153.800781 L 232.207031 168.382812 Z M 232.207031 175.605469 L 211.546875 161.019531 L 211.546875 158.859375 L 232.207031 173.441406 Z M 232.207031 180.660156 L 211.546875 166.078125 L 211.546875 163.914062 L 232.207031 178.496094 Z M 232.207031 185.71875 L 211.546875 171.132812 L 211.546875 168.96875 L 232.207031 183.554688 Z M 232.207031 190.773438 L 211.546875 176.1875 L 211.546875 174.027344 L 232.207031 188.613281 Z M 232.207031 195.832031 L 211.546875 181.246094 L 211.546875 179.082031 L 232.207031 193.667969 Z M 232.207031 200.886719 L 211.546875 186.300781 L 211.546875 184.140625 L 232.207031 198.722656 Z M 211.546875 149.277344 L 207.085938 151.84375 L 207.085938 191.539062 L 209.113281 191.796875 L 210.132812 191.925781 L 210.875 192.636719 L 215.425781 196.988281 L 226.71875 204.960938 L 230.140625 204.484375 L 211.546875 191.355469 L 211.546875 189.195312 L 232.207031 203.78125 L 232.207031 204.195312 L 232.789062 204.113281 L 234.535156 203.871094 L 234.777344 204.167969 L 234.777344 165.675781 Z M 202.90625 154.253906 L 202.90625 170.714844 L 201.761719 170.714844 L 201.761719 154.914062 L 197.769531 157.214844 L 197.769531 182.949219 L 196.972656 182.949219 L 196.972656 157.675781 L 194.367188 159.175781 L 194.367188 186.027344 L 202.707031 186.027344 L 202.707031 190.988281 L 205.414062 191.328125 L 205.414062 152.808594 L 202.90625 154.253906 " fill-opacity="1" fill-rule="nonzero"/><path fill="#383535" d="M 192.082031 217.457031 L 192.308594 217.65625 L 192.308594 219.441406 L 192.082031 219.246094 L 191.261719 218.515625 L 191.261719 216.730469 L 192.082031 217.457031 " fill-opacity="1" fill-rule="nonzero"/><g clip-path="url(#e23bce52e8)"><path fill="#383535" d="M 208.082031 126.457031 L 203.074219 122.019531 L 203.074219 112.125 L 208.082031 116.558594 Z M 208.082031 138.140625 L 203.074219 133.707031 L 203.074219 123.808594 L 208.082031 128.246094 Z M 202.171875 121.222656 L 198.917969 118.34375 L 197.164062 116.792969 L 197.164062 106.890625 L 198.917969 108.445312 L 202.171875 111.328125 Z M 202.171875 132.910156 L 198.917969 130.03125 L 197.164062 128.476562 L 197.164062 118.578125 L 198.917969 120.128906 L 202.171875 123.011719 Z M 202.171875 144.59375 L 198.917969 141.714844 L 197.164062 140.160156 L 197.164062 130.261719 L 198.917969 131.816406 L 202.171875 134.695312 Z M 196.265625 115.992188 L 195.503906 115.316406 L 192.082031 112.296875 L 191.257812 111.5625 L 191.257812 101.664062 L 192.082031 102.398438 L 195.503906 105.421875 L 196.265625 106.097656 Z M 196.265625 127.679688 L 195.503906 127.003906 L 192.082031 123.980469 L 191.257812 123.246094 L 191.257812 113.347656 L 192.082031 114.082031 L 195.503906 117.105469 L 196.265625 117.777344 Z M 196.265625 139.363281 L 195.503906 138.6875 L 192.082031 135.664062 L 191.257812 134.933594 L 191.257812 125.03125 L 192.082031 125.765625 L 195.503906 128.789062 L 196.265625 129.464844 Z M 196.265625 151.050781 L 195.503906 150.375 L 192.082031 147.351562 L 191.257812 146.617188 L 191.257812 136.71875 L 192.082031 137.453125 L 195.503906 140.476562 L 196.265625 141.152344 Z M 190.355469 110.765625 L 188.664062 109.269531 L 185.683594 106.628906 L 185.34375 106.332031 L 185.34375 96.433594 L 185.683594 96.734375 L 188.664062 99.371094 L 190.355469 100.867188 Z M 190.355469 122.449219 L 188.664062 120.957031 L 185.683594 118.316406 L 185.34375 118.015625 L 185.34375 108.117188 L 185.683594 108.417969 L 188.664062 111.058594 L 190.355469 112.554688 Z M 190.355469 134.136719 L 188.664062 132.640625 L 185.683594 130 L 185.34375 129.703125 L 185.34375 119.800781 L 185.683594 120.105469 L 188.664062 122.742188 L 190.355469 124.238281 Z M 190.355469 145.820312 L 188.664062 144.324219 L 185.683594 141.683594 L 185.34375 141.386719 L 185.34375 131.488281 L 185.683594 131.789062 L 188.664062 134.425781 L 190.355469 135.921875 Z M 190.355469 157.503906 L 188.664062 156.007812 L 185.683594 153.371094 L 185.34375 153.070312 L 185.34375 143.171875 L 185.683594 143.472656 L 188.664062 146.109375 L 190.355469 147.605469 Z M 190.355469 169.1875 L 188.664062 167.695312 L 185.683594 165.054688 L 185.34375 164.753906 L 185.34375 154.855469 L 185.683594 155.15625 L 188.664062 157.792969 L 190.355469 159.289062 Z M 190.355469 180.875 L 188.664062 179.378906 L 185.683594 176.738281 L 185.34375 176.4375 L 185.34375 166.542969 L 185.683594 166.839844 L 188.664062 169.480469 L 190.355469 170.976562 Z M 208.1875 113.476562 L 202.125 108.113281 L 198.707031 105.085938 L 195.292969 102.0625 L 191.871094 99.039062 L 188.457031 96.011719 L 185.472656 93.375 L 183.003906 91.1875 L 162.960938 105.667969 L 162.960938 128.011719 L 176.761719 133.625 L 178.042969 134.144531 L 178.042969 188.777344 L 187.503906 190.039062 L 185.683594 188.425781 L 185.34375 188.125 L 185.34375 178.226562 L 185.683594 178.527344 L 188.664062 181.164062 L 190.355469 182.660156 L 190.355469 186.027344 L 191.257812 186.027344 L 191.257812 183.457031 L 191.261719 183.464844 L 191.261719 181.675781 L 191.257812 181.671875 L 191.257812 171.773438 L 191.261719 171.777344 L 191.261719 169.992188 L 191.257812 169.984375 L 191.257812 160.085938 L 191.261719 160.09375 L 191.261719 158.304688 L 191.257812 158.300781 L 191.257812 148.402344 L 192.082031 149.136719 L 195.503906 152.15625 L 196.265625 152.832031 L 196.265625 154.496094 L 197.164062 153.980469 L 197.164062 153.632812 L 197.402344 153.84375 L 198.621094 153.136719 L 197.164062 151.847656 L 197.164062 141.949219 L 198.917969 143.5 L 202.171875 146.382812 L 202.171875 151.089844 L 203.074219 150.570312 L 203.074219 147.179688 L 205.394531 149.234375 L 205.535156 149.152344 L 206.617188 148.527344 L 203.074219 145.390625 L 203.074219 135.492188 L 208.082031 139.929688 L 208.082031 147.683594 L 209.667969 146.769531 L 209.667969 114.792969 L 208.1875 113.476562 " fill-opacity="1" fill-rule="nonzero"/></g><path fill="#ceaf83" d="M 140.210938 143.039062 L 157.554688 133.347656 L 157.554688 137.289062 L 159.492188 135.914062 L 174.898438 142.179688 L 174.898438 136.617188 L 157.96875 129.730469 L 140.210938 143.039062 " fill-opacity="1" fill-rule="nonzero"/><path fill="#ceaf83" d="M 140.210938 152.304688 L 157.554688 142.609375 L 157.554688 146.554688 L 159.492188 145.179688 L 174.898438 151.445312 L 174.898438 145.878906 L 157.96875 138.996094 L 140.210938 152.304688 " fill-opacity="1" fill-rule="nonzero"/><path fill="#ceaf83" d="M 140.210938 161.566406 L 157.554688 151.875 L 157.554688 155.816406 L 159.492188 154.445312 L 174.898438 160.707031 L 174.898438 155.144531 L 157.96875 148.257812 L 140.210938 161.566406 " fill-opacity="1" fill-rule="nonzero"/><path fill="#ceaf83" d="M 140.210938 170.828125 L 157.554688 161.136719 L 157.554688 165.082031 L 159.492188 163.707031 L 174.898438 169.972656 L 174.898438 164.410156 L 157.96875 157.523438 L 140.210938 170.828125 " fill-opacity="1" fill-rule="nonzero"/><path fill="#ceaf83" d="M 140.210938 180.09375 L 157.554688 170.402344 L 157.554688 174.347656 L 159.492188 172.972656 L 174.898438 179.238281 L 174.898438 173.671875 L 157.96875 166.789062 L 140.210938 180.09375 " fill-opacity="1" fill-rule="nonzero"/><path fill="#ceaf83" d="M 140.210938 189.359375 L 144.550781 186.105469 L 143.34375 187.605469 Z M 140.210938 189.359375 " fill-opacity="1" fill-rule="nonzero"/><path fill="#ceaf83" d="M 174.898438 182.933594 L 174.898438 188.5 L 174.367188 188.285156 L 159.492188 182.234375 L 157.554688 183.609375 L 157.554688 179.667969 L 148.34375 184.8125 L 147.59375 184.710938 L 146.589844 184.578125 L 157.96875 176.050781 L 174.898438 182.933594 " fill-opacity="1" fill-rule="nonzero"/><path fill="#ceaf83" d="M 160.828125 186.476562 L 157.082031 185.980469 L 157.96875 185.316406 Z M 160.828125 186.476562 " fill-opacity="1" fill-rule="nonzero"/><g clip-path="url(#43d80f73e3)"><path fill="#383535" d="M 165.496094 216.246094 C 165.179688 215.980469 153.09375 207.949219 147.179688 203.117188 L 116.714844 229.011719 L 144.917969 199.371094 L 147.179688 196.992188 L 151.015625 201.027344 L 165.496094 216.246094 " fill-opacity="1" fill-rule="nonzero"/></g><path fill="#ceaf83" d="M 200.617188 205.1875 L 188.578125 205.1875 L 188.578125 209.355469 L 183.804688 209.9375 L 182.773438 210.058594 L 182.027344 210.773438 L 173.148438 219.273438 L 147.179688 191.980469 L 125.5625 214.699219 L 147.179688 187.792969 L 190.246094 193.539062 L 190.246094 198.800781 L 192.511719 201.183594 L 192.511719 189.132812 L 199.597656 189.132812 L 199.597656 193.730469 L 208.726562 194.878906 L 220.210938 205.871094 L 200.617188 208.605469 L 200.617188 205.1875 " fill-opacity="1" fill-rule="nonzero"/><path fill="#383535" d="M 141.25 218.429688 L 141.25 219.765625 L 146.148438 219.765625 L 146.148438 213.53125 C 143.441406 213.53125 141.25 215.722656 141.25 218.429688 " fill-opacity="1" fill-rule="nonzero"/><path fill="#383535" d="M 148.078125 213.53125 L 148.078125 219.765625 L 152.976562 219.765625 L 152.976562 218.429688 C 152.976562 215.722656 150.785156 213.53125 148.078125 213.53125 " fill-opacity="1" fill-rule="nonzero"/><path fill="#383535" d="M 141.25 226.589844 L 146.148438 226.589844 L 146.148438 221.691406 L 141.25 221.691406 L 141.25 226.589844 " fill-opacity="1" fill-rule="nonzero"/><path fill="#383535" d="M 148.078125 226.589844 L 152.976562 226.589844 L 152.976562 221.691406 L 148.078125 221.691406 L 148.078125 226.589844 " fill-opacity="1" fill-rule="nonzero"/><g clip-path="url(#68401fa790)"><path fill="#ceaf83" d="M 258.273438 241.089844 L 240.660156 226.121094 L 233.21875 219.792969 C 230.960938 221.636719 227.613281 224.046875 224.648438 226.121094 C 221.21875 228.523438 218.292969 230.476562 218.152344 230.59375 L 222.40625 226.121094 L 230.0625 218.074219 L 231.441406 216.625 L 233.21875 214.757812 L 235.078125 216.710938 L 258.273438 241.089844 " fill-opacity="1" fill-rule="nonzero"/></g><path fill="#383535" d="M 250.996094 229.320312 L 233.21875 210.636719 L 229.390625 214.660156 L 218.484375 226.121094 L 206.5 238.710938 L 157.335938 238.710938 L 175.289062 221.523438 L 184.175781 213.019531 L 191.683594 212.105469 L 191.683594 208.292969 L 197.511719 208.292969 L 197.511719 218.203125 L 199.375 216.246094 L 199.375 211.917969 L 223.070312 208.609375 L 233.21875 207.191406 L 250.996094 229.320312 " fill-opacity="1" fill-rule="nonzero"/><path fill="#ceaf83" d="M 238.097656 232.386719 L 238.097656 233.488281 L 234.066406 233.488281 L 234.066406 228.359375 C 236.292969 228.359375 238.097656 230.164062 238.097656 232.386719 " fill-opacity="1" fill-rule="nonzero"/><path fill="#ceaf83" d="M 232.480469 228.359375 L 232.480469 233.488281 L 228.449219 233.488281 L 228.449219 232.386719 C 228.449219 230.164062 230.253906 228.359375 232.480469 228.359375 " fill-opacity="1" fill-rule="nonzero"/><path fill="#ceaf83" d="M 238.097656 239.097656 L 234.066406 239.097656 L 234.066406 235.070312 L 238.097656 235.070312 L 238.097656 239.097656 " fill-opacity="1" fill-rule="nonzero"/><path fill="#ceaf83" d="M 232.480469 239.097656 L 228.449219 239.097656 L 228.449219 235.070312 L 232.480469 235.070312 L 232.480469 239.097656 " fill-opacity="1" fill-rule="nonzero"/><path fill="#383535" d="M 174.367188 188.285156 L 174.898438 188.5 L 174.898438 188.355469 Z M 174.367188 188.285156 " fill-opacity="1" fill-rule="nonzero"/><g clip-path="url(#e6d00c53d8)"><g clip-path="url(#db28928814)"><path stroke-linecap="butt" transform="matrix(0.75, 0, 0, 0.75, 79.505654, 73.526947)" fill="none" stroke-linejoin="miter" d="M 143.992471 0.000528771 C 64.466424 0.000528771 -0.00232991 64.469283 -0.00232991 143.990122 C -0.00232991 223.516168 64.466424 287.984923 143.992471 287.984923 C 223.518518 287.984923 287.982064 223.516168 287.982064 143.990122 C 287.982064 64.469283 223.518518 0.000528771 143.992471 0.000528771 Z M 143.992471 0.000528771 " stroke="#383535" stroke-width="8" stroke-opacity="1" stroke-miterlimit="4"/></g></g><g clip-path="url(#25f51e715c)"><g clip-path="url(#d1a5680e42)"><path stroke-linecap="butt" transform="matrix(0.75, 0, 0, 0.75, 84.887255, 78.908548)" fill="none" stroke-linejoin="miter" d="M 136.811794 0.00214378 C 61.254497 0.00214378 -0.000714901 61.252148 -0.000714901 136.814653 C -0.000714901 212.371949 61.254497 273.627162 136.811794 273.627162 C 212.374299 273.627162 273.624303 212.371949 273.624303 136.814653 C 273.624303 61.252148 212.374299 0.00214378 136.811794 0.00214378 Z M 136.811794 0.00214378 " stroke="#383535" stroke-width="2" stroke-opacity="1" stroke-miterlimit="4"/></g></g><g clip-path="url(#dba8dad61c)"><path fill="#ffffff" d="M 79.503906 241.132812 L 295.496094 241.132812 L 295.496094 305.351562 L 79.503906 305.351562 Z M 79.503906 241.132812 " fill-opacity="1" fill-rule="nonzero"/></g></svg>