<svg xmlns="http://www.w3.org/2000/svg" xmlns:xlink="http://www.w3.org/1999/xlink" width="500" zoomAndPan="magnify" viewBox="0 0 375 374.999991" height="500" preserveAspectRatio="xMidYMid meet" version="1.0"><defs><g/><clipPath id="aa48edcc82"><path d="M 79.503906 75.296875 L 295.492188 75.296875 L 295.492188 291.285156 L 79.503906 291.285156 Z M 79.503906 75.296875 " clip-rule="nonzero"/></clipPath><clipPath id="bfedfaa20d"><path d="M 187.5 75.296875 C 127.855469 75.296875 79.503906 123.644531 79.503906 183.289062 C 79.503906 242.933594 127.855469 291.285156 187.5 291.285156 C 247.144531 291.285156 295.492188 242.933594 295.492188 183.289062 C 295.492188 123.644531 247.144531 75.296875 187.5 75.296875 Z M 187.5 75.296875 " clip-rule="nonzero"/></clipPath><clipPath id="73a5aec293"><path d="M 84.886719 80.675781 L 290.105469 80.675781 L 290.105469 285.894531 L 84.886719 285.894531 Z M 84.886719 80.675781 " clip-rule="nonzero"/></clipPath><clipPath id="0b43a10d04"><path d="M 187.496094 80.675781 C 130.828125 80.675781 84.886719 126.617188 84.886719 183.285156 C 84.886719 239.957031 130.828125 285.894531 187.496094 285.894531 C 244.167969 285.894531 290.105469 239.957031 290.105469 183.285156 C 290.105469 126.617188 244.167969 80.675781 187.496094 80.675781 Z M 187.496094 80.675781 " clip-rule="nonzero"/></clipPath><clipPath id="1abd5b99bd"><path d="M 79.503906 240.765625 L 295.496094 240.765625 L 295.496094 304.984375 L 79.503906 304.984375 Z M 79.503906 240.765625 " clip-rule="nonzero"/></clipPath><clipPath id="5e58deea08"><path d="M 162 99.277344 L 210 99.277344 L 210 199 L 162 199 Z M 162 99.277344 " clip-rule="nonzero"/></clipPath><clipPath id="4d921244ea"><path d="M 116.71875 205 L 166 205 L 166 238 L 116.71875 238 Z M 116.71875 205 " clip-rule="nonzero"/></clipPath><clipPath id="88b635d772"><path d="M 218 222 L 258.46875 222 L 258.46875 249.277344 L 218 249.277344 Z M 218 222 " clip-rule="nonzero"/></clipPath></defs><g clip-path="url(#aa48edcc82)"><g clip-path="url(#bfedfaa20d)"><path stroke-linecap="butt" transform="matrix(0.75, 0, 0, 0.75, 79.505654, 75.29585)" fill="none" stroke-linejoin="miter" d="M 143.992471 0.00136633 C 64.466424 0.00136633 -0.00232991 64.464912 -0.00232991 143.990959 C -0.00232991 223.517006 64.466424 287.98576 143.992471 287.98576 C 223.518518 287.98576 287.982064 223.517006 287.982064 143.990959 C 287.982064 64.464912 223.518518 0.00136633 143.992471 0.00136633 Z M 143.992471 0.00136633 " stroke="#383535" stroke-width="8" stroke-opacity="1" stroke-miterlimit="4"/></g></g><g clip-path="url(#73a5aec293)"><g clip-path="url(#0b43a10d04)"><path stroke-linecap="butt" transform="matrix(0.75, 0, 0, 0.75, 84.887255, 80.677452)" fill="none" stroke-linejoin="miter" d="M 136.811794 -0.002227 C 61.254497 -0.002227 -0.000714901 61.252985 -0.000714901 136.810282 C -0.000714901 212.372787 61.254497 273.622791 136.811794 273.622791 C 212.374299 273.622791 273.624303 212.372787 273.624303 136.810282 C 273.624303 61.252985 212.374299 -0.002227 136.811794 -0.002227 Z M 136.811794 -0.002227 " stroke="#383535" stroke-width="2" stroke-opacity="1" stroke-miterlimit="4"/></g></g><g clip-path="url(#1abd5b99bd)"><path fill="#d4d4d8" d="M 79.503906 240.765625 L 295.496094 240.765625 L 295.496094 304.984375 L 79.503906 304.984375 Z M 79.503906 240.765625 " fill-opacity="1" fill-rule="nonzero"/></g><path fill="#ceaf83" d="M 232.207031 178.695312 L 211.546875 164.109375 L 211.546875 161.945312 L 232.207031 176.53125 Z M 232.207031 183.75 L 211.546875 169.164062 L 211.546875 167.003906 L 232.207031 181.589844 Z M 232.207031 188.808594 L 211.546875 174.222656 L 211.546875 172.0625 L 232.207031 186.644531 Z M 232.207031 193.863281 L 211.546875 179.277344 L 211.546875 177.117188 L 232.207031 191.699219 Z M 232.207031 198.917969 L 211.546875 184.335938 L 211.546875 182.175781 L 232.207031 196.757812 Z M 232.207031 203.976562 L 211.546875 189.390625 L 211.546875 187.230469 L 232.207031 201.8125 Z M 232.207031 209.03125 L 211.546875 194.449219 L 211.546875 192.285156 L 232.207031 206.871094 Z M 211.546875 157.421875 L 207.085938 159.992188 L 207.085938 199.6875 L 209.113281 199.941406 L 210.132812 200.074219 L 210.875 200.78125 L 215.425781 205.132812 L 226.71875 213.109375 L 230.140625 212.628906 L 211.546875 199.503906 L 211.546875 197.34375 L 232.207031 211.925781 L 232.207031 212.339844 L 232.789062 212.261719 L 234.535156 212.015625 L 234.777344 212.316406 L 234.777344 173.820312 Z M 202.90625 162.402344 L 202.90625 178.859375 L 201.761719 178.859375 L 201.761719 163.058594 L 197.769531 165.363281 L 197.769531 191.09375 L 196.972656 191.09375 L 196.972656 165.820312 L 194.367188 167.320312 L 194.367188 194.171875 L 202.707031 194.171875 L 202.707031 199.136719 L 205.414062 199.476562 L 205.414062 160.957031 L 202.90625 162.402344 " fill-opacity="1" fill-rule="nonzero"/><path fill="#383535" d="M 192.082031 225.605469 L 192.308594 225.800781 L 192.308594 227.585938 L 192.082031 227.390625 L 191.261719 226.660156 L 191.261719 224.875 L 192.082031 225.605469 " fill-opacity="1" fill-rule="nonzero"/><g clip-path="url(#5e58deea08)"><path fill="#383535" d="M 208.082031 134.605469 L 203.074219 130.167969 L 203.074219 120.269531 L 208.082031 124.707031 Z M 208.082031 146.289062 L 203.074219 141.855469 L 203.074219 131.953125 L 208.082031 136.390625 Z M 202.171875 129.371094 L 198.917969 126.492188 L 197.164062 124.9375 L 197.164062 115.039062 L 198.917969 116.589844 L 202.171875 119.472656 Z M 202.171875 141.054688 L 198.917969 138.175781 L 197.164062 136.621094 L 197.164062 126.722656 L 198.917969 128.277344 L 202.171875 131.15625 Z M 202.171875 152.742188 L 198.917969 149.859375 L 197.164062 148.308594 L 197.164062 138.410156 L 198.917969 139.964844 L 202.171875 142.84375 Z M 196.265625 124.140625 L 195.503906 123.464844 L 192.082031 120.441406 L 191.257812 119.707031 L 191.257812 109.8125 L 192.082031 110.542969 L 195.503906 113.566406 L 196.265625 114.242188 Z M 196.265625 135.824219 L 195.503906 135.148438 L 192.082031 132.128906 L 191.257812 131.394531 L 191.257812 121.496094 L 192.082031 122.226562 L 195.503906 125.25 L 196.265625 125.925781 Z M 196.265625 147.511719 L 195.503906 146.835938 L 192.082031 143.8125 L 191.257812 143.078125 L 191.257812 133.179688 L 192.082031 133.914062 L 195.503906 136.9375 L 196.265625 137.613281 Z M 196.265625 159.195312 L 195.503906 158.519531 L 192.082031 155.5 L 191.257812 154.765625 L 191.257812 144.867188 L 192.082031 145.597656 L 195.503906 148.621094 L 196.265625 149.296875 Z M 190.355469 118.910156 L 188.664062 117.417969 L 185.683594 114.777344 L 185.34375 114.476562 L 185.34375 104.578125 L 185.683594 104.878906 L 188.664062 107.519531 L 190.355469 109.015625 Z M 190.355469 130.597656 L 188.664062 129.101562 L 185.683594 126.460938 L 185.34375 126.164062 L 185.34375 116.265625 L 185.683594 116.566406 L 188.664062 119.203125 L 190.355469 120.699219 Z M 190.355469 142.28125 L 188.664062 140.789062 L 185.683594 138.148438 L 185.34375 137.847656 L 185.34375 127.949219 L 185.683594 128.25 L 188.664062 130.890625 L 190.355469 132.386719 Z M 190.355469 153.96875 L 188.664062 152.46875 L 185.683594 149.832031 L 185.34375 149.53125 L 185.34375 139.632812 L 185.683594 139.933594 L 188.664062 142.574219 L 190.355469 144.066406 Z M 190.355469 165.652344 L 188.664062 164.15625 L 185.683594 161.515625 L 185.34375 161.21875 L 185.34375 151.316406 L 185.683594 151.617188 L 188.664062 154.257812 L 190.355469 155.753906 Z M 190.355469 177.335938 L 188.664062 175.839844 L 185.683594 173.203125 L 185.34375 172.898438 L 185.34375 163.003906 L 185.683594 163.300781 L 188.664062 165.941406 L 190.355469 167.4375 Z M 190.355469 189.019531 L 188.664062 187.523438 L 185.683594 184.886719 L 185.34375 184.585938 L 185.34375 174.6875 L 185.683594 174.988281 L 188.664062 177.628906 L 190.355469 179.121094 Z M 208.1875 121.625 L 202.125 116.257812 L 198.707031 113.234375 L 195.292969 110.210938 L 191.871094 107.1875 L 188.457031 104.160156 L 185.472656 101.519531 L 183.003906 99.335938 L 162.960938 113.8125 L 162.960938 136.15625 L 176.761719 141.769531 L 178.042969 142.289062 L 178.042969 196.921875 L 187.503906 198.183594 L 185.683594 196.570312 L 185.34375 196.269531 L 185.34375 186.375 L 185.683594 186.671875 L 188.664062 189.3125 L 190.355469 190.808594 L 190.355469 194.171875 L 191.257812 194.171875 L 191.257812 191.605469 L 191.261719 191.609375 L 191.261719 189.820312 L 191.257812 189.816406 L 191.257812 179.921875 L 191.261719 179.925781 L 191.261719 178.136719 L 191.257812 178.132812 L 191.257812 168.234375 L 191.261719 168.238281 L 191.261719 166.453125 L 191.257812 166.449219 L 191.257812 156.550781 L 192.082031 157.28125 L 195.503906 160.304688 L 196.265625 160.980469 L 196.265625 162.644531 L 197.164062 162.125 L 197.164062 161.777344 L 197.402344 161.988281 L 198.621094 161.285156 L 197.164062 159.992188 L 197.164062 150.09375 L 198.917969 151.648438 L 202.171875 154.527344 L 202.171875 159.238281 L 203.074219 158.71875 L 203.074219 155.324219 L 205.394531 157.378906 L 205.535156 157.300781 L 206.617188 156.675781 L 203.074219 153.539062 L 203.074219 143.640625 L 208.082031 148.078125 L 208.082031 155.832031 L 209.667969 154.917969 L 209.667969 122.9375 L 208.1875 121.625 " fill-opacity="1" fill-rule="nonzero"/></g><path fill="#ceaf83" d="M 140.210938 151.183594 L 157.554688 141.492188 L 157.554688 145.4375 L 159.492188 144.0625 L 174.898438 150.328125 L 174.898438 144.761719 L 157.96875 137.878906 L 140.210938 151.183594 " fill-opacity="1" fill-rule="nonzero"/><path fill="#ceaf83" d="M 140.210938 160.449219 L 157.554688 150.757812 L 157.554688 154.699219 L 159.492188 153.328125 L 174.898438 159.589844 L 174.898438 154.027344 L 157.96875 147.140625 L 140.210938 160.449219 " fill-opacity="1" fill-rule="nonzero"/><path fill="#ceaf83" d="M 140.210938 169.710938 L 157.554688 160.019531 L 157.554688 163.964844 L 159.492188 162.589844 L 174.898438 168.855469 L 174.898438 163.292969 L 157.96875 156.40625 L 140.210938 169.710938 " fill-opacity="1" fill-rule="nonzero"/><path fill="#ceaf83" d="M 140.210938 178.976562 L 157.554688 169.285156 L 157.554688 173.226562 L 159.492188 171.855469 L 174.898438 178.121094 L 174.898438 172.554688 L 157.96875 165.671875 L 140.210938 178.976562 " fill-opacity="1" fill-rule="nonzero"/><path fill="#ceaf83" d="M 140.210938 188.242188 L 157.554688 178.546875 L 157.554688 182.492188 L 159.492188 181.117188 L 174.898438 187.382812 L 174.898438 181.820312 L 157.96875 174.933594 L 140.210938 188.242188 " fill-opacity="1" fill-rule="nonzero"/><path fill="#ceaf83" d="M 140.210938 197.503906 L 144.550781 194.253906 L 143.34375 195.753906 Z M 140.210938 197.503906 " fill-opacity="1" fill-rule="nonzero"/><path fill="#ceaf83" d="M 174.898438 191.082031 L 174.898438 196.648438 L 174.367188 196.429688 L 159.492188 190.382812 L 157.554688 191.757812 L 157.554688 187.8125 L 148.34375 192.960938 L 147.59375 192.859375 L 146.589844 192.722656 L 157.96875 184.199219 L 174.898438 191.082031 " fill-opacity="1" fill-rule="nonzero"/><path fill="#ceaf83" d="M 160.828125 194.625 L 157.082031 194.125 L 157.96875 193.460938 Z M 160.828125 194.625 " fill-opacity="1" fill-rule="nonzero"/><g clip-path="url(#4d921244ea)"><path fill="#383535" d="M 165.496094 224.394531 C 165.179688 224.128906 153.09375 216.09375 147.179688 211.261719 L 116.714844 237.15625 L 144.917969 207.515625 L 147.179688 205.140625 L 151.015625 209.171875 L 165.496094 224.394531 " fill-opacity="1" fill-rule="nonzero"/></g><path fill="#ceaf83" d="M 200.617188 213.332031 L 188.578125 213.332031 L 188.578125 217.5 L 183.804688 218.082031 L 182.773438 218.207031 L 182.027344 218.921875 L 173.148438 227.417969 L 147.179688 200.128906 L 125.5625 222.847656 L 147.179688 195.9375 L 190.246094 201.683594 L 190.246094 206.949219 L 192.511719 209.332031 L 192.511719 197.28125 L 199.597656 197.28125 L 199.597656 201.878906 L 208.726562 203.027344 L 220.210938 214.015625 L 200.617188 216.75 L 200.617188 213.332031 " fill-opacity="1" fill-rule="nonzero"/><path fill="#383535" d="M 141.25 226.578125 L 141.25 227.914062 L 146.148438 227.914062 L 146.148438 221.679688 C 143.441406 221.679688 141.25 223.871094 141.25 226.578125 " fill-opacity="1" fill-rule="nonzero"/><path fill="#383535" d="M 148.078125 221.679688 L 148.078125 227.914062 L 152.976562 227.914062 L 152.976562 226.578125 C 152.976562 223.871094 150.785156 221.679688 148.078125 221.679688 " fill-opacity="1" fill-rule="nonzero"/><path fill="#383535" d="M 141.25 234.734375 L 146.148438 234.734375 L 146.148438 229.835938 L 141.25 229.835938 L 141.25 234.734375 " fill-opacity="1" fill-rule="nonzero"/><path fill="#383535" d="M 148.078125 234.734375 L 152.976562 234.734375 L 152.976562 229.835938 L 148.078125 229.835938 L 148.078125 234.734375 " fill-opacity="1" fill-rule="nonzero"/><g clip-path="url(#88b635d772)"><path fill="#ceaf83" d="M 258.273438 249.234375 L 240.660156 234.269531 L 233.21875 227.941406 C 230.960938 229.785156 227.613281 232.191406 224.648438 234.269531 C 221.21875 236.667969 218.292969 238.621094 218.152344 238.738281 L 222.40625 234.269531 L 230.0625 226.222656 L 231.441406 224.769531 L 233.21875 222.90625 L 235.078125 224.859375 L 258.273438 249.234375 " fill-opacity="1" fill-rule="nonzero"/></g><path fill="#383535" d="M 250.996094 237.464844 L 233.21875 218.78125 L 229.390625 222.804688 L 218.484375 234.269531 L 206.5 246.859375 L 157.335938 246.859375 L 175.289062 229.671875 L 184.175781 221.167969 L 191.683594 220.253906 L 191.683594 216.441406 L 197.511719 216.441406 L 197.511719 226.351562 L 199.375 224.390625 L 199.375 220.0625 L 223.070312 216.753906 L 233.21875 215.335938 L 250.996094 237.464844 " fill-opacity="1" fill-rule="nonzero"/><path fill="#ceaf83" d="M 238.097656 240.535156 L 238.097656 241.632812 L 234.066406 241.632812 L 234.066406 236.503906 C 236.292969 236.503906 238.097656 238.308594 238.097656 240.535156 " fill-opacity="1" fill-rule="nonzero"/><path fill="#ceaf83" d="M 232.480469 236.503906 L 232.480469 241.632812 L 228.449219 241.632812 L 228.449219 240.535156 C 228.449219 238.308594 230.253906 236.503906 232.480469 236.503906 " fill-opacity="1" fill-rule="nonzero"/><path fill="#ceaf83" d="M 238.097656 247.246094 L 234.066406 247.246094 L 234.066406 243.214844 L 238.097656 243.214844 L 238.097656 247.246094 " fill-opacity="1" fill-rule="nonzero"/><path fill="#ceaf83" d="M 232.480469 247.246094 L 228.449219 247.246094 L 228.449219 243.214844 L 232.480469 243.214844 L 232.480469 247.246094 " fill-opacity="1" fill-rule="nonzero"/><path fill="#383535" d="M 174.367188 196.429688 L 174.898438 196.648438 L 174.898438 196.503906 Z M 174.367188 196.429688 " fill-opacity="1" fill-rule="nonzero"/><g fill="#383535" fill-opacity="1"><g transform="translate(147.179452, 300.569772)"><g><path d="M 4.203125 -7.640625 C 4.878906 -7.640625 5.46875 -7.523438 5.96875 -7.296875 C 6.46875 -7.066406 6.851562 -6.742188 7.125 -6.328125 C 7.394531 -5.921875 7.53125 -5.429688 7.53125 -4.859375 C 7.53125 -4.304688 7.394531 -3.816406 7.125 -3.390625 C 6.851562 -2.972656 6.46875 -2.65625 5.96875 -2.4375 C 5.46875 -2.21875 4.878906 -2.109375 4.203125 -2.109375 L 2.671875 -2.109375 L 2.671875 0 L 0.90625 0 L 0.90625 -7.640625 Z M 4.109375 -3.546875 C 4.640625 -3.546875 5.039062 -3.660156 5.3125 -3.890625 C 5.59375 -4.117188 5.734375 -4.441406 5.734375 -4.859375 C 5.734375 -5.285156 5.59375 -5.613281 5.3125 -5.84375 C 5.039062 -6.070312 4.640625 -6.1875 4.109375 -6.1875 L 2.671875 -6.1875 L 2.671875 -3.546875 Z M 4.109375 -3.546875 "/></g></g></g><g fill="#383535" fill-opacity="1"><g transform="translate(155.998617, 300.569772)"><g><path d="M 5.765625 0 L 4.296875 -2.125 L 2.671875 -2.125 L 2.671875 0 L 0.90625 0 L 0.90625 -7.640625 L 4.203125 -7.640625 C 4.878906 -7.640625 5.46875 -7.523438 5.96875 -7.296875 C 6.46875 -7.066406 6.851562 -6.742188 7.125 -6.328125 C 7.394531 -5.921875 7.53125 -5.429688 7.53125 -4.859375 C 7.53125 -4.296875 7.390625 -3.804688 7.109375 -3.390625 C 6.835938 -2.984375 6.453125 -2.671875 5.953125 -2.453125 L 7.671875 0 Z M 5.734375 -4.859375 C 5.734375 -5.285156 5.59375 -5.613281 5.3125 -5.84375 C 5.039062 -6.070312 4.640625 -6.1875 4.109375 -6.1875 L 2.671875 -6.1875 L 2.671875 -3.53125 L 4.109375 -3.53125 C 4.640625 -3.53125 5.039062 -3.644531 5.3125 -3.875 C 5.59375 -4.113281 5.734375 -4.441406 5.734375 -4.859375 Z M 5.734375 -4.859375 "/></g></g></g><g fill="#383535" fill-opacity="1"><g transform="translate(164.850483, 300.569772)"><g><path d="M 4.609375 0.125 C 3.804688 0.125 3.085938 -0.0390625 2.453125 -0.375 C 1.816406 -0.71875 1.316406 -1.1875 0.953125 -1.78125 C 0.597656 -2.382812 0.421875 -3.0625 0.421875 -3.8125 C 0.421875 -4.5625 0.597656 -5.234375 0.953125 -5.828125 C 1.316406 -6.429688 1.816406 -6.90625 2.453125 -7.25 C 3.085938 -7.59375 3.804688 -7.765625 4.609375 -7.765625 C 5.398438 -7.765625 6.109375 -7.59375 6.734375 -7.25 C 7.367188 -6.90625 7.867188 -6.429688 8.234375 -5.828125 C 8.597656 -5.234375 8.78125 -4.5625 8.78125 -3.8125 C 8.78125 -3.0625 8.597656 -2.382812 8.234375 -1.78125 C 7.867188 -1.1875 7.367188 -0.71875 6.734375 -0.375 C 6.109375 -0.0390625 5.398438 0.125 4.609375 0.125 Z M 4.609375 -1.375 C 5.054688 -1.375 5.460938 -1.476562 5.828125 -1.6875 C 6.191406 -1.894531 6.472656 -2.179688 6.671875 -2.546875 C 6.878906 -2.921875 6.984375 -3.34375 6.984375 -3.8125 C 6.984375 -4.289062 6.878906 -4.710938 6.671875 -5.078125 C 6.472656 -5.453125 6.191406 -5.742188 5.828125 -5.953125 C 5.460938 -6.160156 5.054688 -6.265625 4.609375 -6.265625 C 4.148438 -6.265625 3.738281 -6.160156 3.375 -5.953125 C 3.007812 -5.742188 2.722656 -5.453125 2.515625 -5.078125 C 2.316406 -4.710938 2.21875 -4.289062 2.21875 -3.8125 C 2.21875 -3.34375 2.316406 -2.921875 2.515625 -2.546875 C 2.722656 -2.179688 3.007812 -1.894531 3.375 -1.6875 C 3.738281 -1.476562 4.148438 -1.375 4.609375 -1.375 Z M 4.609375 -1.375 "/></g></g></g><g fill="#383535" fill-opacity="1"><g transform="translate(174.890475, 300.569772)"><g><path d="M 4.203125 -7.640625 C 4.878906 -7.640625 5.46875 -7.523438 5.96875 -7.296875 C 6.46875 -7.066406 6.851562 -6.742188 7.125 -6.328125 C 7.394531 -5.921875 7.53125 -5.429688 7.53125 -4.859375 C 7.53125 -4.304688 7.394531 -3.816406 7.125 -3.390625 C 6.851562 -2.972656 6.46875 -2.65625 5.96875 -2.4375 C 5.46875 -2.21875 4.878906 -2.109375 4.203125 -2.109375 L 2.671875 -2.109375 L 2.671875 0 L 0.90625 0 L 0.90625 -7.640625 Z M 4.109375 -3.546875 C 4.640625 -3.546875 5.039062 -3.660156 5.3125 -3.890625 C 5.59375 -4.117188 5.734375 -4.441406 5.734375 -4.859375 C 5.734375 -5.285156 5.59375 -5.613281 5.3125 -5.84375 C 5.039062 -6.070312 4.640625 -6.1875 4.109375 -6.1875 L 2.671875 -6.1875 L 2.671875 -3.546875 Z M 4.109375 -3.546875 "/></g></g></g><g fill="#383535" fill-opacity="1"><g transform="translate(183.709638, 300.569772)"><g><path d="M 6.8125 -1.421875 L 6.8125 0 L 0.90625 0 L 0.90625 -7.640625 L 6.671875 -7.640625 L 6.671875 -6.21875 L 2.65625 -6.21875 L 2.65625 -4.5625 L 6.203125 -4.5625 L 6.203125 -3.1875 L 2.65625 -3.1875 L 2.65625 -1.421875 Z M 6.8125 -1.421875 "/></g></g></g><g fill="#383535" fill-opacity="1"><g transform="translate(191.863892, 300.569772)"><g><path d="M 5.765625 0 L 4.296875 -2.125 L 2.671875 -2.125 L 2.671875 0 L 0.90625 0 L 0.90625 -7.640625 L 4.203125 -7.640625 C 4.878906 -7.640625 5.46875 -7.523438 5.96875 -7.296875 C 6.46875 -7.066406 6.851562 -6.742188 7.125 -6.328125 C 7.394531 -5.921875 7.53125 -5.429688 7.53125 -4.859375 C 7.53125 -4.296875 7.390625 -3.804688 7.109375 -3.390625 C 6.835938 -2.984375 6.453125 -2.671875 5.953125 -2.453125 L 7.671875 0 Z M 5.734375 -4.859375 C 5.734375 -5.285156 5.59375 -5.613281 5.3125 -5.84375 C 5.039062 -6.070312 4.640625 -6.1875 4.109375 -6.1875 L 2.671875 -6.1875 L 2.671875 -3.53125 L 4.109375 -3.53125 C 4.640625 -3.53125 5.039062 -3.644531 5.3125 -3.875 C 5.59375 -4.113281 5.734375 -4.441406 5.734375 -4.859375 Z M 5.734375 -4.859375 "/></g></g></g><g fill="#383535" fill-opacity="1"><g transform="translate(200.715757, 300.569772)"><g><path d="M 2.484375 -6.1875 L 0.046875 -6.1875 L 0.046875 -7.640625 L 6.703125 -7.640625 L 6.703125 -6.1875 L 4.25 -6.1875 L 4.25 0 L 2.484375 0 Z M 2.484375 -6.1875 "/></g></g></g><g fill="#383535" fill-opacity="1"><g transform="translate(208.292305, 300.569772)"><g><path d="M 0.90625 -7.640625 L 2.671875 -7.640625 L 2.671875 0 L 0.90625 0 Z M 0.90625 -7.640625 "/></g></g></g><g fill="#383535" fill-opacity="1"><g transform="translate(212.707803, 300.569772)"><g><path d="M 6.8125 -1.421875 L 6.8125 0 L 0.90625 0 L 0.90625 -7.640625 L 6.671875 -7.640625 L 6.671875 -6.21875 L 2.65625 -6.21875 L 2.65625 -4.5625 L 6.203125 -4.5625 L 6.203125 -3.1875 L 2.65625 -3.1875 L 2.65625 -1.421875 Z M 6.8125 -1.421875 "/></g></g></g><g fill="#383535" fill-opacity="1"><g transform="translate(220.862057, 300.569772)"><g><path d="M 3.40625 0.125 C 2.8125 0.125 2.226562 0.046875 1.65625 -0.109375 C 1.09375 -0.273438 0.644531 -0.488281 0.3125 -0.75 L 0.90625 -2.078125 C 1.226562 -1.835938 1.613281 -1.644531 2.0625 -1.5 C 2.519531 -1.351562 2.972656 -1.28125 3.421875 -1.28125 C 3.921875 -1.28125 4.289062 -1.351562 4.53125 -1.5 C 4.769531 -1.65625 4.890625 -1.859375 4.890625 -2.109375 C 4.890625 -2.285156 4.816406 -2.429688 4.671875 -2.546875 C 4.535156 -2.671875 4.359375 -2.769531 4.140625 -2.84375 C 3.921875 -2.914062 3.617188 -3 3.234375 -3.09375 C 2.648438 -3.226562 2.171875 -3.363281 1.796875 -3.5 C 1.429688 -3.632812 1.113281 -3.851562 0.84375 -4.15625 C 0.582031 -4.46875 0.453125 -4.878906 0.453125 -5.390625 C 0.453125 -5.828125 0.570312 -6.222656 0.8125 -6.578125 C 1.050781 -6.941406 1.410156 -7.226562 1.890625 -7.4375 C 2.378906 -7.65625 2.972656 -7.765625 3.671875 -7.765625 C 4.160156 -7.765625 4.632812 -7.707031 5.09375 -7.59375 C 5.5625 -7.476562 5.972656 -7.3125 6.328125 -7.09375 L 5.78125 -5.75 C 5.070312 -6.144531 4.367188 -6.34375 3.671875 -6.34375 C 3.171875 -6.34375 2.800781 -6.265625 2.5625 -6.109375 C 2.332031 -5.953125 2.21875 -5.738281 2.21875 -5.46875 C 2.21875 -5.207031 2.351562 -5.015625 2.625 -4.890625 C 2.894531 -4.765625 3.3125 -4.640625 3.875 -4.515625 C 4.457031 -4.378906 4.929688 -4.238281 5.296875 -4.09375 C 5.671875 -3.957031 5.988281 -3.738281 6.25 -3.4375 C 6.519531 -3.144531 6.65625 -2.742188 6.65625 -2.234375 C 6.65625 -1.796875 6.53125 -1.394531 6.28125 -1.03125 C 6.039062 -0.675781 5.675781 -0.394531 5.1875 -0.1875 C 4.695312 0.0195312 4.101562 0.125 3.40625 0.125 Z M 3.40625 0.125 "/></g></g></g><g fill="#383535" fill-opacity="1"><g transform="translate(79.004318, 283.614235)"><g><path d="M 2.921875 -21.8125 L 12.46875 -21.8125 C 14.789062 -21.8125 16.851562 -21.359375 18.65625 -20.453125 C 20.46875 -19.546875 21.867188 -18.265625 22.859375 -16.609375 C 23.859375 -14.960938 24.359375 -13.0625 24.359375 -10.90625 C 24.359375 -8.75 23.859375 -6.84375 22.859375 -5.1875 C 21.867188 -3.53125 20.46875 -2.25 18.65625 -1.34375 C 16.851562 -0.445312 14.789062 0 12.46875 0 L 2.921875 0 Z M 12.28125 -3.421875 C 13.875 -3.421875 15.273438 -3.726562 16.484375 -4.34375 C 17.703125 -4.957031 18.640625 -5.828125 19.296875 -6.953125 C 19.953125 -8.085938 20.28125 -9.40625 20.28125 -10.90625 C 20.28125 -12.394531 19.953125 -13.707031 19.296875 -14.84375 C 18.640625 -15.976562 17.703125 -16.847656 16.484375 -17.453125 C 15.273438 -18.066406 13.875 -18.375 12.28125 -18.375 L 6.984375 -18.375 L 6.984375 -3.421875 Z M 12.28125 -3.421875 "/></g></g></g><g fill="#383535" fill-opacity="1"><g transform="translate(104.735282, 283.614235)"><g><path d="M 13.109375 0.3125 C 10.890625 0.3125 8.882812 -0.171875 7.09375 -1.140625 C 5.3125 -2.109375 3.910156 -3.445312 2.890625 -5.15625 C 1.878906 -6.875 1.375 -8.789062 1.375 -10.90625 C 1.375 -13.019531 1.878906 -14.929688 2.890625 -16.640625 C 3.910156 -18.359375 5.3125 -19.703125 7.09375 -20.671875 C 8.882812 -21.640625 10.890625 -22.125 13.109375 -22.125 C 15.335938 -22.125 17.34375 -21.640625 19.125 -20.671875 C 20.914062 -19.703125 22.316406 -18.363281 23.328125 -16.65625 C 24.347656 -14.957031 24.859375 -13.039062 24.859375 -10.90625 C 24.859375 -8.769531 24.347656 -6.847656 23.328125 -5.140625 C 22.316406 -3.441406 20.914062 -2.109375 19.125 -1.140625 C 17.34375 -0.171875 15.335938 0.3125 13.109375 0.3125 Z M 13.109375 -3.234375 C 14.566406 -3.234375 15.875 -3.5625 17.03125 -4.21875 C 18.195312 -4.875 19.113281 -5.785156 19.78125 -6.953125 C 20.445312 -8.128906 20.78125 -9.445312 20.78125 -10.90625 C 20.78125 -12.351562 20.445312 -13.664062 19.78125 -14.84375 C 19.113281 -16.019531 18.195312 -16.929688 17.03125 -17.578125 C 15.875 -18.234375 14.566406 -18.5625 13.109375 -18.5625 C 11.660156 -18.5625 10.351562 -18.234375 9.1875 -17.578125 C 8.03125 -16.929688 7.117188 -16.019531 6.453125 -14.84375 C 5.785156 -13.664062 5.453125 -12.351562 5.453125 -10.90625 C 5.453125 -9.445312 5.785156 -8.128906 6.453125 -6.953125 C 7.117188 -5.785156 8.03125 -4.875 9.1875 -4.21875 C 10.351562 -3.5625 11.660156 -3.234375 13.109375 -3.234375 Z M 13.109375 -3.234375 "/></g></g></g><g fill="#383535" fill-opacity="1"><g transform="translate(130.964656, 283.614235)"><g><path d="M 22.96875 0 L 22.9375 -14.453125 L 15.765625 -2.5 L 13.953125 -2.5 L 6.796875 -14.265625 L 6.796875 0 L 2.921875 0 L 2.921875 -21.8125 L 6.265625 -21.8125 L 14.921875 -7.359375 L 23.421875 -21.8125 L 26.765625 -21.8125 L 26.796875 0 Z M 22.96875 0 "/></g></g></g><g fill="#383535" fill-opacity="1"><g transform="translate(160.714131, 283.614235)"><g><path d="M 2.921875 -21.8125 L 6.984375 -21.8125 L 6.984375 0 L 2.921875 0 Z M 2.921875 -21.8125 "/></g></g></g><g fill="#383535" fill-opacity="1"><g transform="translate(170.651393, 283.614235)"><g><path d="M 22.3125 -21.8125 L 22.3125 0 L 18.96875 0 L 6.953125 -14.765625 L 6.953125 0 L 2.921875 0 L 2.921875 -21.8125 L 6.265625 -21.8125 L 18.28125 -7.046875 L 18.28125 -21.8125 Z M 22.3125 -21.8125 "/></g></g></g><g fill="#383535" fill-opacity="1"><g transform="translate(195.883932, 283.614235)"><g><path d="M 17.828125 -11.15625 L 21.65625 -11.15625 L 21.65625 -2.46875 C 20.53125 -1.570312 19.21875 -0.882812 17.71875 -0.40625 C 16.226562 0.0703125 14.691406 0.3125 13.109375 0.3125 C 10.890625 0.3125 8.882812 -0.171875 7.09375 -1.140625 C 5.3125 -2.109375 3.910156 -3.441406 2.890625 -5.140625 C 1.878906 -6.847656 1.375 -8.769531 1.375 -10.90625 C 1.375 -13.039062 1.878906 -14.957031 2.890625 -16.65625 C 3.910156 -18.363281 5.316406 -19.703125 7.109375 -20.671875 C 8.910156 -21.640625 10.929688 -22.125 13.171875 -22.125 C 15.003906 -22.125 16.664062 -21.820312 18.15625 -21.21875 C 19.65625 -20.613281 20.914062 -19.726562 21.9375 -18.5625 L 19.375 -16.078125 C 17.71875 -17.734375 15.710938 -18.5625 13.359375 -18.5625 C 11.828125 -18.5625 10.460938 -18.238281 9.265625 -17.59375 C 8.078125 -16.957031 7.144531 -16.054688 6.46875 -14.890625 C 5.789062 -13.722656 5.453125 -12.394531 5.453125 -10.90625 C 5.453125 -9.445312 5.789062 -8.132812 6.46875 -6.96875 C 7.144531 -5.8125 8.078125 -4.898438 9.265625 -4.234375 C 10.460938 -3.566406 11.816406 -3.234375 13.328125 -3.234375 C 15.035156 -3.234375 16.535156 -3.609375 17.828125 -4.359375 Z M 17.828125 -11.15625 "/></g></g></g><g fill="#383535" fill-opacity="1"><g transform="translate(219.932721, 283.614235)"><g><path d="M 12.3125 0.3125 C 9.300781 0.3125 6.953125 -0.53125 5.265625 -2.21875 C 3.578125 -3.914062 2.734375 -6.34375 2.734375 -9.5 L 2.734375 -21.8125 L 6.796875 -21.8125 L 6.796875 -9.65625 C 6.796875 -5.375 8.644531 -3.234375 12.34375 -3.234375 C 16.019531 -3.234375 17.859375 -5.375 17.859375 -9.65625 L 17.859375 -21.8125 L 21.84375 -21.8125 L 21.84375 -9.5 C 21.84375 -6.34375 21.003906 -3.914062 19.328125 -2.21875 C 17.660156 -0.53125 15.320312 0.3125 12.3125 0.3125 Z M 12.3125 0.3125 "/></g></g></g><g fill="#383535" fill-opacity="1"><g transform="translate(244.511082, 283.614235)"><g><path d="M 2.921875 -21.8125 L 6.984375 -21.8125 L 6.984375 0 L 2.921875 0 Z M 2.921875 -21.8125 "/></g></g></g><g fill="#383535" fill-opacity="1"><g transform="translate(254.448344, 283.614235)"><g><path d="M 19.28125 -3.390625 L 19.28125 0 L 2.921875 0 L 2.921875 -21.8125 L 18.84375 -21.8125 L 18.84375 -18.40625 L 6.984375 -18.40625 L 6.984375 -12.75 L 17.515625 -12.75 L 17.515625 -9.40625 L 6.984375 -9.40625 L 6.984375 -3.390625 Z M 19.28125 -3.390625 "/></g></g></g><g fill="#383535" fill-opacity="1"><g transform="translate(275.319701, 283.614235)"><g><path d="M 19.875 -3.421875 L 19.875 0 L 1.28125 0 L 1.28125 -2.703125 L 14.109375 -18.375 L 1.5 -18.375 L 1.5 -21.8125 L 19.46875 -21.8125 L 19.46875 -19.09375 L 6.640625 -3.421875 Z M 19.875 -3.421875 "/></g></g></g></svg>