<svg xmlns="http://www.w3.org/2000/svg" xmlns:xlink="http://www.w3.org/1999/xlink" width="500" zoomAndPan="magnify" viewBox="0 0 375 374.999991" height="500" preserveAspectRatio="xMidYMid meet" version="1.0"><defs><g/></defs><g fill="#383535" fill-opacity="1"><g transform="translate(79.004318, 198.286332)"><g><path d="M 2.921875 -21.8125 L 12.46875 -21.8125 C 14.789062 -21.8125 16.851562 -21.359375 18.65625 -20.453125 C 20.46875 -19.546875 21.867188 -18.265625 22.859375 -16.609375 C 23.859375 -14.960938 24.359375 -13.0625 24.359375 -10.90625 C 24.359375 -8.75 23.859375 -6.84375 22.859375 -5.1875 C 21.867188 -3.53125 20.46875 -2.25 18.65625 -1.34375 C 16.851562 -0.445312 14.789062 0 12.46875 0 L 2.921875 0 Z M 12.28125 -3.421875 C 13.875 -3.421875 15.273438 -3.726562 16.484375 -4.34375 C 17.703125 -4.957031 18.640625 -5.828125 19.296875 -6.953125 C 19.953125 -8.085938 20.28125 -9.40625 20.28125 -10.90625 C 20.28125 -12.394531 19.953125 -13.707031 19.296875 -14.84375 C 18.640625 -15.976562 17.703125 -16.847656 16.484375 -17.453125 C 15.273438 -18.066406 13.875 -18.375 12.28125 -18.375 L 6.984375 -18.375 L 6.984375 -3.421875 Z M 12.28125 -3.421875 "/></g></g></g><g fill="#383535" fill-opacity="1"><g transform="translate(104.735282, 198.286332)"><g><path d="M 13.109375 0.3125 C 10.890625 0.3125 8.882812 -0.171875 7.09375 -1.140625 C 5.3125 -2.109375 3.910156 -3.445312 2.890625 -5.15625 C 1.878906 -6.875 1.375 -8.789062 1.375 -10.90625 C 1.375 -13.019531 1.878906 -14.929688 2.890625 -16.640625 C 3.910156 -18.359375 5.3125 -19.703125 7.09375 -20.671875 C 8.882812 -21.640625 10.890625 -22.125 13.109375 -22.125 C 15.335938 -22.125 17.34375 -21.640625 19.125 -20.671875 C 20.914062 -19.703125 22.316406 -18.363281 23.328125 -16.65625 C 24.347656 -14.957031 24.859375 -13.039062 24.859375 -10.90625 C 24.859375 -8.769531 24.347656 -6.847656 23.328125 -5.140625 C 22.316406 -3.441406 20.914062 -2.109375 19.125 -1.140625 C 17.34375 -0.171875 15.335938 0.3125 13.109375 0.3125 Z M 13.109375 -3.234375 C 14.566406 -3.234375 15.875 -3.5625 17.03125 -4.21875 C 18.195312 -4.875 19.113281 -5.785156 19.78125 -6.953125 C 20.445312 -8.128906 20.78125 -9.445312 20.78125 -10.90625 C 20.78125 -12.351562 20.445312 -13.664062 19.78125 -14.84375 C 19.113281 -16.019531 18.195312 -16.929688 17.03125 -17.578125 C 15.875 -18.234375 14.566406 -18.5625 13.109375 -18.5625 C 11.660156 -18.5625 10.351562 -18.234375 9.1875 -17.578125 C 8.03125 -16.929688 7.117188 -16.019531 6.453125 -14.84375 C 5.785156 -13.664062 5.453125 -12.351562 5.453125 -10.90625 C 5.453125 -9.445312 5.785156 -8.128906 6.453125 -6.953125 C 7.117188 -5.785156 8.03125 -4.875 9.1875 -4.21875 C 10.351562 -3.5625 11.660156 -3.234375 13.109375 -3.234375 Z M 13.109375 -3.234375 "/></g></g></g><g fill="#383535" fill-opacity="1"><g transform="translate(130.964656, 198.286332)"><g><path d="M 22.96875 0 L 22.9375 -14.453125 L 15.765625 -2.5 L 13.953125 -2.5 L 6.796875 -14.265625 L 6.796875 0 L 2.921875 0 L 2.921875 -21.8125 L 6.265625 -21.8125 L 14.921875 -7.359375 L 23.421875 -21.8125 L 26.765625 -21.8125 L 26.796875 0 Z M 22.96875 0 "/></g></g></g><g fill="#383535" fill-opacity="1"><g transform="translate(160.714131, 198.286332)"><g><path d="M 2.921875 -21.8125 L 6.984375 -21.8125 L 6.984375 0 L 2.921875 0 Z M 2.921875 -21.8125 "/></g></g></g><g fill="#383535" fill-opacity="1"><g transform="translate(170.651393, 198.286332)"><g><path d="M 22.3125 -21.8125 L 22.3125 0 L 18.96875 0 L 6.953125 -14.765625 L 6.953125 0 L 2.921875 0 L 2.921875 -21.8125 L 6.265625 -21.8125 L 18.28125 -7.046875 L 18.28125 -21.8125 Z M 22.3125 -21.8125 "/></g></g></g><g fill="#383535" fill-opacity="1"><g transform="translate(195.883932, 198.286332)"><g><path d="M 17.828125 -11.15625 L 21.65625 -11.15625 L 21.65625 -2.46875 C 20.53125 -1.570312 19.21875 -0.882812 17.71875 -0.40625 C 16.226562 0.0703125 14.691406 0.3125 13.109375 0.3125 C 10.890625 0.3125 8.882812 -0.171875 7.09375 -1.140625 C 5.3125 -2.109375 3.910156 -3.441406 2.890625 -5.140625 C 1.878906 -6.847656 1.375 -8.769531 1.375 -10.90625 C 1.375 -13.039062 1.878906 -14.957031 2.890625 -16.65625 C 3.910156 -18.363281 5.316406 -19.703125 7.109375 -20.671875 C 8.910156 -21.640625 10.929688 -22.125 13.171875 -22.125 C 15.003906 -22.125 16.664062 -21.820312 18.15625 -21.21875 C 19.65625 -20.613281 20.914062 -19.726562 21.9375 -18.5625 L 19.375 -16.078125 C 17.71875 -17.734375 15.710938 -18.5625 13.359375 -18.5625 C 11.828125 -18.5625 10.460938 -18.238281 9.265625 -17.59375 C 8.078125 -16.957031 7.144531 -16.054688 6.46875 -14.890625 C 5.789062 -13.722656 5.453125 -12.394531 5.453125 -10.90625 C 5.453125 -9.445312 5.789062 -8.132812 6.46875 -6.96875 C 7.144531 -5.8125 8.078125 -4.898438 9.265625 -4.234375 C 10.460938 -3.566406 11.816406 -3.234375 13.328125 -3.234375 C 15.035156 -3.234375 16.535156 -3.609375 17.828125 -4.359375 Z M 17.828125 -11.15625 "/></g></g></g><g fill="#383535" fill-opacity="1"><g transform="translate(219.932721, 198.286332)"><g><path d="M 12.3125 0.3125 C 9.300781 0.3125 6.953125 -0.53125 5.265625 -2.21875 C 3.578125 -3.914062 2.734375 -6.34375 2.734375 -9.5 L 2.734375 -21.8125 L 6.796875 -21.8125 L 6.796875 -9.65625 C 6.796875 -5.375 8.644531 -3.234375 12.34375 -3.234375 C 16.019531 -3.234375 17.859375 -5.375 17.859375 -9.65625 L 17.859375 -21.8125 L 21.84375 -21.8125 L 21.84375 -9.5 C 21.84375 -6.34375 21.003906 -3.914062 19.328125 -2.21875 C 17.660156 -0.53125 15.320312 0.3125 12.3125 0.3125 Z M 12.3125 0.3125 "/></g></g></g><g fill="#383535" fill-opacity="1"><g transform="translate(244.511082, 198.286332)"><g><path d="M 2.921875 -21.8125 L 6.984375 -21.8125 L 6.984375 0 L 2.921875 0 Z M 2.921875 -21.8125 "/></g></g></g><g fill="#383535" fill-opacity="1"><g transform="translate(254.448344, 198.286332)"><g><path d="M 19.28125 -3.390625 L 19.28125 0 L 2.921875 0 L 2.921875 -21.8125 L 18.84375 -21.8125 L 18.84375 -18.40625 L 6.984375 -18.40625 L 6.984375 -12.75 L 17.515625 -12.75 L 17.515625 -9.40625 L 6.984375 -9.40625 L 6.984375 -3.390625 Z M 19.28125 -3.390625 "/></g></g></g><g fill="#383535" fill-opacity="1"><g transform="translate(275.319701, 198.286332)"><g><path d="M 19.875 -3.421875 L 19.875 0 L 1.28125 0 L 1.28125 -2.703125 L 14.109375 -18.375 L 1.5 -18.375 L 1.5 -21.8125 L 19.46875 -21.8125 L 19.46875 -19.09375 L 6.640625 -3.421875 Z M 19.875 -3.421875 "/></g></g></g><g fill="#383535" fill-opacity="1"><g transform="translate(147.179452, 215.241867)"><g><path d="M 4.203125 -7.640625 C 4.878906 -7.640625 5.46875 -7.523438 5.96875 -7.296875 C 6.46875 -7.066406 6.851562 -6.742188 7.125 -6.328125 C 7.394531 -5.921875 7.53125 -5.429688 7.53125 -4.859375 C 7.53125 -4.304688 7.394531 -3.816406 7.125 -3.390625 C 6.851562 -2.972656 6.46875 -2.65625 5.96875 -2.4375 C 5.46875 -2.21875 4.878906 -2.109375 4.203125 -2.109375 L 2.671875 -2.109375 L 2.671875 0 L 0.90625 0 L 0.90625 -7.640625 Z M 4.109375 -3.546875 C 4.640625 -3.546875 5.039062 -3.660156 5.3125 -3.890625 C 5.59375 -4.117188 5.734375 -4.441406 5.734375 -4.859375 C 5.734375 -5.285156 5.59375 -5.613281 5.3125 -5.84375 C 5.039062 -6.070312 4.640625 -6.1875 4.109375 -6.1875 L 2.671875 -6.1875 L 2.671875 -3.546875 Z M 4.109375 -3.546875 "/></g></g></g><g fill="#383535" fill-opacity="1"><g transform="translate(155.998617, 215.241867)"><g><path d="M 5.765625 0 L 4.296875 -2.125 L 2.671875 -2.125 L 2.671875 0 L 0.90625 0 L 0.90625 -7.640625 L 4.203125 -7.640625 C 4.878906 -7.640625 5.46875 -7.523438 5.96875 -7.296875 C 6.46875 -7.066406 6.851562 -6.742188 7.125 -6.328125 C 7.394531 -5.921875 7.53125 -5.429688 7.53125 -4.859375 C 7.53125 -4.296875 7.390625 -3.804688 7.109375 -3.390625 C 6.835938 -2.984375 6.453125 -2.671875 5.953125 -2.453125 L 7.671875 0 Z M 5.734375 -4.859375 C 5.734375 -5.285156 5.59375 -5.613281 5.3125 -5.84375 C 5.039062 -6.070312 4.640625 -6.1875 4.109375 -6.1875 L 2.671875 -6.1875 L 2.671875 -3.53125 L 4.109375 -3.53125 C 4.640625 -3.53125 5.039062 -3.644531 5.3125 -3.875 C 5.59375 -4.113281 5.734375 -4.441406 5.734375 -4.859375 Z M 5.734375 -4.859375 "/></g></g></g><g fill="#383535" fill-opacity="1"><g transform="translate(164.850483, 215.241867)"><g><path d="M 4.609375 0.125 C 3.804688 0.125 3.085938 -0.0390625 2.453125 -0.375 C 1.816406 -0.71875 1.316406 -1.1875 0.953125 -1.78125 C 0.597656 -2.382812 0.421875 -3.0625 0.421875 -3.8125 C 0.421875 -4.5625 0.597656 -5.234375 0.953125 -5.828125 C 1.316406 -6.429688 1.816406 -6.90625 2.453125 -7.25 C 3.085938 -7.59375 3.804688 -7.765625 4.609375 -7.765625 C 5.398438 -7.765625 6.109375 -7.59375 6.734375 -7.25 C 7.367188 -6.90625 7.867188 -6.429688 8.234375 -5.828125 C 8.597656 -5.234375 8.78125 -4.5625 8.78125 -3.8125 C 8.78125 -3.0625 8.597656 -2.382812 8.234375 -1.78125 C 7.867188 -1.1875 7.367188 -0.71875 6.734375 -0.375 C 6.109375 -0.0390625 5.398438 0.125 4.609375 0.125 Z M 4.609375 -1.375 C 5.054688 -1.375 5.460938 -1.476562 5.828125 -1.6875 C 6.191406 -1.894531 6.472656 -2.179688 6.671875 -2.546875 C 6.878906 -2.921875 6.984375 -3.34375 6.984375 -3.8125 C 6.984375 -4.289062 6.878906 -4.710938 6.671875 -5.078125 C 6.472656 -5.453125 6.191406 -5.742188 5.828125 -5.953125 C 5.460938 -6.160156 5.054688 -6.265625 4.609375 -6.265625 C 4.148438 -6.265625 3.738281 -6.160156 3.375 -5.953125 C 3.007812 -5.742188 2.722656 -5.453125 2.515625 -5.078125 C 2.316406 -4.710938 2.21875 -4.289062 2.21875 -3.8125 C 2.21875 -3.34375 2.316406 -2.921875 2.515625 -2.546875 C 2.722656 -2.179688 3.007812 -1.894531 3.375 -1.6875 C 3.738281 -1.476562 4.148438 -1.375 4.609375 -1.375 Z M 4.609375 -1.375 "/></g></g></g><g fill="#383535" fill-opacity="1"><g transform="translate(174.890475, 215.241867)"><g><path d="M 4.203125 -7.640625 C 4.878906 -7.640625 5.46875 -7.523438 5.96875 -7.296875 C 6.46875 -7.066406 6.851562 -6.742188 7.125 -6.328125 C 7.394531 -5.921875 7.53125 -5.429688 7.53125 -4.859375 C 7.53125 -4.304688 7.394531 -3.816406 7.125 -3.390625 C 6.851562 -2.972656 6.46875 -2.65625 5.96875 -2.4375 C 5.46875 -2.21875 4.878906 -2.109375 4.203125 -2.109375 L 2.671875 -2.109375 L 2.671875 0 L 0.90625 0 L 0.90625 -7.640625 Z M 4.109375 -3.546875 C 4.640625 -3.546875 5.039062 -3.660156 5.3125 -3.890625 C 5.59375 -4.117188 5.734375 -4.441406 5.734375 -4.859375 C 5.734375 -5.285156 5.59375 -5.613281 5.3125 -5.84375 C 5.039062 -6.070312 4.640625 -6.1875 4.109375 -6.1875 L 2.671875 -6.1875 L 2.671875 -3.546875 Z M 4.109375 -3.546875 "/></g></g></g><g fill="#383535" fill-opacity="1"><g transform="translate(183.709638, 215.241867)"><g><path d="M 6.8125 -1.421875 L 6.8125 0 L 0.90625 0 L 0.90625 -7.640625 L 6.671875 -7.640625 L 6.671875 -6.21875 L 2.65625 -6.21875 L 2.65625 -4.5625 L 6.203125 -4.5625 L 6.203125 -3.1875 L 2.65625 -3.1875 L 2.65625 -1.421875 Z M 6.8125 -1.421875 "/></g></g></g><g fill="#383535" fill-opacity="1"><g transform="translate(191.863892, 215.241867)"><g><path d="M 5.765625 0 L 4.296875 -2.125 L 2.671875 -2.125 L 2.671875 0 L 0.90625 0 L 0.90625 -7.640625 L 4.203125 -7.640625 C 4.878906 -7.640625 5.46875 -7.523438 5.96875 -7.296875 C 6.46875 -7.066406 6.851562 -6.742188 7.125 -6.328125 C 7.394531 -5.921875 7.53125 -5.429688 7.53125 -4.859375 C 7.53125 -4.296875 7.390625 -3.804688 7.109375 -3.390625 C 6.835938 -2.984375 6.453125 -2.671875 5.953125 -2.453125 L 7.671875 0 Z M 5.734375 -4.859375 C 5.734375 -5.285156 5.59375 -5.613281 5.3125 -5.84375 C 5.039062 -6.070312 4.640625 -6.1875 4.109375 -6.1875 L 2.671875 -6.1875 L 2.671875 -3.53125 L 4.109375 -3.53125 C 4.640625 -3.53125 5.039062 -3.644531 5.3125 -3.875 C 5.59375 -4.113281 5.734375 -4.441406 5.734375 -4.859375 Z M 5.734375 -4.859375 "/></g></g></g><g fill="#383535" fill-opacity="1"><g transform="translate(200.715757, 215.241867)"><g><path d="M 2.484375 -6.1875 L 0.046875 -6.1875 L 0.046875 -7.640625 L 6.703125 -7.640625 L 6.703125 -6.1875 L 4.25 -6.1875 L 4.25 0 L 2.484375 0 Z M 2.484375 -6.1875 "/></g></g></g><g fill="#383535" fill-opacity="1"><g transform="translate(208.292305, 215.241867)"><g><path d="M 0.90625 -7.640625 L 2.671875 -7.640625 L 2.671875 0 L 0.90625 0 Z M 0.90625 -7.640625 "/></g></g></g><g fill="#383535" fill-opacity="1"><g transform="translate(212.707803, 215.241867)"><g><path d="M 6.8125 -1.421875 L 6.8125 0 L 0.90625 0 L 0.90625 -7.640625 L 6.671875 -7.640625 L 6.671875 -6.21875 L 2.65625 -6.21875 L 2.65625 -4.5625 L 6.203125 -4.5625 L 6.203125 -3.1875 L 2.65625 -3.1875 L 2.65625 -1.421875 Z M 6.8125 -1.421875 "/></g></g></g><g fill="#383535" fill-opacity="1"><g transform="translate(220.862057, 215.241867)"><g><path d="M 3.40625 0.125 C 2.8125 0.125 2.226562 0.046875 1.65625 -0.109375 C 1.09375 -0.273438 0.644531 -0.488281 0.3125 -0.75 L 0.90625 -2.078125 C 1.226562 -1.835938 1.613281 -1.644531 2.0625 -1.5 C 2.519531 -1.351562 2.972656 -1.28125 3.421875 -1.28125 C 3.921875 -1.28125 4.289062 -1.351562 4.53125 -1.5 C 4.769531 -1.65625 4.890625 -1.859375 4.890625 -2.109375 C 4.890625 -2.285156 4.816406 -2.429688 4.671875 -2.546875 C 4.535156 -2.671875 4.359375 -2.769531 4.140625 -2.84375 C 3.921875 -2.914062 3.617188 -3 3.234375 -3.09375 C 2.648438 -3.226562 2.171875 -3.363281 1.796875 -3.5 C 1.429688 -3.632812 1.113281 -3.851562 0.84375 -4.15625 C 0.582031 -4.46875 0.453125 -4.878906 0.453125 -5.390625 C 0.453125 -5.828125 0.570312 -6.222656 0.8125 -6.578125 C 1.050781 -6.941406 1.410156 -7.226562 1.890625 -7.4375 C 2.378906 -7.65625 2.972656 -7.765625 3.671875 -7.765625 C 4.160156 -7.765625 4.632812 -7.707031 5.09375 -7.59375 C 5.5625 -7.476562 5.972656 -7.3125 6.328125 -7.09375 L 5.78125 -5.75 C 5.070312 -6.144531 4.367188 -6.34375 3.671875 -6.34375 C 3.171875 -6.34375 2.800781 -6.265625 2.5625 -6.109375 C 2.332031 -5.953125 2.21875 -5.738281 2.21875 -5.46875 C 2.21875 -5.207031 2.351562 -5.015625 2.625 -4.890625 C 2.894531 -4.765625 3.3125 -4.640625 3.875 -4.515625 C 4.457031 -4.378906 4.929688 -4.238281 5.296875 -4.09375 C 5.671875 -3.957031 5.988281 -3.738281 6.25 -3.4375 C 6.519531 -3.144531 6.65625 -2.742188 6.65625 -2.234375 C 6.65625 -1.796875 6.53125 -1.394531 6.28125 -1.03125 C 6.039062 -0.675781 5.675781 -0.394531 5.1875 -0.1875 C 4.695312 0.0195312 4.101562 0.125 3.40625 0.125 Z M 3.40625 0.125 "/></g></g></g></svg>